<svg width="42" height="42" viewBox="0 0 42 42" fill="none" xmlns="http://www.w3.org/2000/svg">
<path d="M13.7148 24.1111L19.8107 20.3945V12.6396" stroke="#01C1B2" stroke-width="2.5" stroke-linecap="round" stroke-linejoin="round"/>
<path fill-rule="evenodd" clip-rule="evenodd" d="M24.3792 33.3734C23.309 32.3031 23.309 30.568 24.3792 29.4977L31.1653 22.7117C32.2355 21.6414 33.9707 21.6414 35.041 22.7117L37.6274 25.2981C38.6976 26.3683 38.6976 28.1035 37.6274 29.1738L30.8413 35.9598C29.7711 37.0301 28.0359 37.0301 26.9657 35.9598L24.3792 33.3734Z" stroke="#01C1B2" stroke-width="2.5" stroke-linecap="round" stroke-linejoin="round"/>
<path d="M19.3332 34.3383C11.2614 34.3413 4.6334 27.9586 4.33194 19.8925C4.03048 11.8264 10.1636 4.96685 18.2131 4.36728C26.2625 3.7677 33.3442 9.64293 34.2411 17.6647" stroke="#01C1B2" stroke-width="2.5" stroke-linecap="round" stroke-linejoin="round"/>
<path d="M27.7734 26.1055L34.2411 32.5732" stroke="#01C1B2" stroke-width="2.5" stroke-linecap="round" stroke-linejoin="round"/>
</svg>
