<svg width="58" height="58" viewBox="0 0 58 58" fill="none" xmlns="http://www.w3.org/2000/svg">
<path fill-rule="evenodd" clip-rule="evenodd" d="M31.3348 39.4815C31.4479 41.8173 32.3792 44.0388 33.9656 45.757C35.2326 47.2287 36.7444 48.4704 38.4343 49.4271C39.906 50.2481 41.7095 50.195 43.1302 49.2888C44.662 48.3097 46.0393 47.1077 47.2166 45.7225C48.8322 44.0217 49.8176 41.8195 50.0094 39.4815C50.0204 38.0906 49.5004 36.7478 48.5552 35.7272C47.6469 34.7376 46.3685 34.1695 45.0253 34.1586C43.3388 34.0406 41.7089 34.7927 40.7042 36.1524L40.6723 36.1993L40.6399 36.1524C39.7257 34.8659 38.2314 34.1185 36.6536 34.1586C35.235 34.1345 33.8675 34.6877 32.8646 35.6913C31.8618 36.695 31.3096 38.0629 31.3348 39.4815Z" stroke="#6A489C" stroke-width="3" stroke-linecap="round" stroke-linejoin="round"/>
<path d="M31.334 24.3312H40.6712" stroke="#6A489C" stroke-width="3" stroke-linecap="round" stroke-linejoin="round"/>
<path d="M17.3281 23.6917L19.4734 25.6245L23.7918 21.7356" stroke="#6A489C" stroke-width="3" stroke-linecap="round" stroke-linejoin="round"/>
<path d="M24.3313 50.0087H19.6627C13.2167 50.0087 7.99121 44.7832 7.99121 38.3372V19.6627C7.99121 13.2167 13.2167 7.99121 19.6627 7.99121H38.3372C44.7832 7.99121 50.0087 13.2167 50.0087 19.6627V26.6657" stroke="#6A489C" stroke-width="3" stroke-linecap="round" stroke-linejoin="round"/>
<path d="M17.3281 35.3634L19.4734 37.2962L23.7918 33.4072" stroke="#6A489C" stroke-width="3" stroke-linecap="round" stroke-linejoin="round"/>
</svg>
