<svg width="48" height="48" viewBox="0 0 48 48" fill="none" xmlns="http://www.w3.org/2000/svg">
<circle cx="24" cy="24" r="24" fill="#6A489C"/>
<path d="M19.9121 23.8512L17.8022 21.8678V15.7851H27.033L29.9341 13.9339V21.8678L27.8242 23.8512M19.9121 23.8512L22.022 25.8347V28.2149H19.9121M19.9121 23.8512H16.4835C15.6044 23.5427 13.8462 22.2909 13.8462 19.7521C13.8462 17.2132 13.8462 14.4628 13.8462 13.405C13.8462 9.96694 18.1714 6 23.8681 6C30.989 6 33.6264 10.7603 33.6264 13.9339C33.6264 14.7802 33.6264 18.1653 33.6264 19.7521C33.5385 21.1185 32.9407 23.8512 31.2527 23.8512C29.5648 23.8512 28.2637 23.8512 27.8242 23.8512M27.8242 23.8512L25.7143 25.8347V28.2149C26.2488 28.2149 26.9976 28.2149 27.8242 28.2149M19.9121 28.2149H14.9011C13.9341 28.5675 12 29.643 12 31.124C12 32.605 12 36.3251 12 38H19.9121M19.9121 28.2149L15.6923 32.1818L19.9121 38M19.9121 28.2149V34.2975M19.9121 38H27.956M19.9121 38V34.2975M27.8242 28.2149C29.5804 28.2149 31.6874 28.2149 32.8352 28.2149C34.5231 28.2149 35.6484 30.1543 36 31.124V38H27.956M27.8242 28.2149L32.044 32.1818L27.956 38M27.8242 28.2149L27.9061 34.2975M27.956 38L27.9061 34.2975M19.9121 34.2975H27.9061" stroke="white" stroke-width="1.3"/>
</svg>
