<svg width="48" height="48" viewBox="0 0 48 48" fill="none" xmlns="http://www.w3.org/2000/svg">
<circle cx="24" cy="24" r="24" fill="#6A489C"/>
<path d="M17.8022 14.1311C17.8022 15.6175 17.8022 19.0098 17.8022 20.6885C17.8022 23.3115 20.7033 25.9344 22.022 25.9344V28.0328C21.4777 28.0328 20.7295 28.0328 19.9121 28.0328M17.8022 14.1311L16.2198 11.5082L16.6667 8L18 8.09835H22.8132L24.9231 9.40982L25.7143 11.5082V8.09835C27.2088 8.36064 30.1978 9.40982 30.1978 11.5082C30.1978 12.1648 30.1978 13.0954 30.1978 14.1311M17.8022 14.1311H30.1978M19.9121 28.0328C18.0888 28.0328 15.9208 28.0328 14.9011 28.0328C13.4242 28.0328 12.3516 29.9563 12 30.918V38H19.9121M19.9121 28.0328V38M19.9121 28.0328L15.6923 31.9672L19.9121 38M19.9121 28.0328L23.8681 34.3279L27.8242 28.0328M19.9121 38H27.956M27.8242 28.0328H25.7143V25.9344C26.9802 25.9344 30.1978 22.5246 30.1978 20.6885C30.1978 19.1867 30.1978 16.4054 30.1978 14.1311M27.8242 28.0328H32.5714C33.7143 28.3825 36 29.4492 36 30.918C36 32.3869 36 36.2514 36 38H27.956M27.8242 28.0328L27.956 38M27.8242 28.0328L31.7802 31.9672L27.956 38" stroke="white" stroke-width="1.3"/>
</svg>
