<svg width="42" height="42" viewBox="0 0 42 42" fill="none" xmlns="http://www.w3.org/2000/svg">
<path fill-rule="evenodd" clip-rule="evenodd" d="M36.8395 36.0062H26.0016C25.5412 36.0062 25.168 35.633 25.168 35.1726V34.4956C25.1735 32.5696 26.7334 31.0096 28.6594 31.0042H34.1817C36.1077 31.0096 37.6677 32.5696 37.6732 34.4956V35.1726C37.6732 35.633 37.2999 36.0062 36.8395 36.0062Z" stroke="#01C1B2" stroke-width="2.5" stroke-linecap="round" stroke-linejoin="round"/>
<path fill-rule="evenodd" clip-rule="evenodd" d="M31.4208 26.8358C29.5804 26.8321 28.0909 25.3382 28.0928 23.4978C28.0946 21.6574 29.5871 20.1664 31.4275 20.1664C33.2679 20.1664 34.7604 21.6574 34.7622 23.4978C34.7641 25.3382 33.2746 26.8321 31.4342 26.8358H31.4208Z" stroke="#01C1B2" stroke-width="2.5" stroke-linecap="round" stroke-linejoin="round"/>
<path d="M15.8775 27.6694L15.0438 34.3389" stroke="#01C1B2" stroke-width="2.5" stroke-linecap="round" stroke-linejoin="round"/>
<path d="M35.0519 15.9979V10.0421C35.0519 7.80628 33.2394 5.99377 31.0036 5.99377H10.0415C7.80567 5.99377 5.99316 7.80628 5.99316 10.0421V23.6211C5.99316 25.857 7.80567 27.6695 10.0415 27.6695H22.6668" stroke="#01C1B2" stroke-width="2.5" stroke-linecap="round" stroke-linejoin="round"/>
<path d="M12.543 34.3389H19.3325" stroke="#01C1B2" stroke-width="2.5" stroke-linecap="round" stroke-linejoin="round"/>
<path d="M10.9951 15.9979H14.3295L16.831 19.7495L20.1654 12.2463L22.667 15.9979H26.0014" stroke="#01C1B2" stroke-width="2.5" stroke-linecap="round" stroke-linejoin="round"/>
</svg>
